<svg aria-hidden="true" style="position: absolute; width: 0; height: 0; overflow: hidden;" version="1.1" xmlns="http://www.w3.org/2000/svg" xmlns:xlink="http://www.w3.org/1999/xlink">
<defs>
<symbol id="icon-Group" viewBox="0 0 22 32">
<path fill="#000" style="fill: var(--color1, #000)" d="M22.2 1.437v28.798c0 0.795-0.616 1.437-1.378 1.437h-19.443c-0.762-0.005-1.378-0.647-1.378-1.437v-28.798c0-0.795 0.616-1.437 1.378-1.437h19.448c0.757 0 1.373 0.642 1.373 1.437z"></path>
<path fill="#000" style="fill: var(--color1, #000)" d="M20.786 2.649v26.369c0 0.728-0.541 1.316-1.211 1.316h-17.084c-0.67-0.005-1.211-0.593-1.211-1.316v-26.369c0-0.728 0.541-1.316 1.211-1.316h17.089c0.665 0 1.207 0.588 1.207 1.316z"></path>
<path fill="#000" style="fill: var(--color1, #000)" d="M8.593 6.084v1.31c0 0.095-0.071 0.168-0.162 0.168h-1.54c-0.091 0-0.162 0.074-0.162 0.168v1.605c0 0.095-0.071 0.168-0.162 0.168h-1.257c-0.091 0-0.162-0.074-0.162-0.168v-1.605c0-0.095-0.071-0.168-0.162-0.168h-1.535c-0.091 0-0.162-0.074-0.162-0.168v-1.31c0-0.095 0.071-0.168 0.162-0.168h1.54c0.091 0 0.162-0.074 0.162-0.168v-1.605c0-0.095 0.071-0.168 0.162-0.168h1.257c0.091 0 0.162 0.074 0.162 0.168v1.605c0 0.095 0.071 0.168 0.162 0.168h1.535c0.091 0 0.162 0.074 0.162 0.168z"></path>
<path fill="#000" style="fill: var(--color1, #000)" opacity="0.5" d="M18.731 13.226h-15.263c-0.101 0-0.182-0.084-0.182-0.189v-0.605c0-0.105 0.081-0.189 0.182-0.189h15.263c0.101 0 0.182 0.084 0.182 0.189v0.605c-0.005 0.105-0.081 0.189-0.182 0.189z"></path>
<path fill="#000" style="fill: var(--color1, #000)" d="M18.731 5.684h-7.573c-0.101 0-0.182-0.084-0.182-0.189v-0.6c0-0.105 0.081-0.189 0.182-0.189h7.573c0.101 0 0.182 0.084 0.182 0.189v0.605c-0.005 0.1-0.081 0.184-0.182 0.184z"></path>
<path fill="#000" style="fill: var(--color1, #000)" opacity="0.5" d="M16.49 8.242h-5.332c-0.101 0-0.182-0.084-0.182-0.189v-0.605c0-0.105 0.081-0.189 0.182-0.189h5.332c0.101 0 0.182 0.084 0.182 0.189v0.605c-0.005 0.105-0.081 0.189-0.182 0.189z"></path>
<path fill="#000" style="fill: var(--color1, #000)" opacity="0.5" d="M18.731 16.099h-15.263c-0.101 0-0.182-0.084-0.182-0.189v-0.605c0-0.105 0.081-0.189 0.182-0.189h15.263c0.101 0 0.182 0.084 0.182 0.189v0.605c-0.005 0.105-0.081 0.189-0.182 0.189z"></path>
<path fill="#000" style="fill: var(--color1, #000)" opacity="0.5" d="M18.731 18.973h-15.263c-0.101 0-0.182-0.084-0.182-0.189v-0.605c0-0.105 0.081-0.189 0.182-0.189h15.263c0.101 0 0.182 0.084 0.182 0.189v0.61c-0.005 0.1-0.081 0.184-0.182 0.184z"></path>
<path fill="#000" style="fill: var(--color1, #000)" opacity="0.5" d="M18.731 21.851h-15.263c-0.101 0-0.182-0.084-0.182-0.189v-0.605c0-0.105 0.081-0.189 0.182-0.189h15.263c0.101 0 0.182 0.084 0.182 0.189v0.605c-0.005 0.105-0.081 0.189-0.182 0.189z"></path>
<path fill="#000" style="fill: var(--color1, #000)" opacity="0.5" d="M18.731 24.725h-15.263c-0.101 0-0.182-0.084-0.182-0.189v-0.605c0-0.105 0.081-0.189 0.182-0.189h15.263c0.101 0 0.182 0.084 0.182 0.189v0.605c-0.005 0.105-0.081 0.189-0.182 0.189z"></path>
<path fill="#000" style="fill: var(--color1, #000)" opacity="0.5" d="M18.731 27.598h-15.263c-0.101 0-0.182-0.084-0.182-0.189v-0.605c0-0.105 0.081-0.189 0.182-0.189h15.263c0.101 0 0.182 0.084 0.182 0.189v0.605c-0.005 0.105-0.081 0.189-0.182 0.189z"></path>
<path fill="#1a6fb5" style="fill: var(--color2, #1a6fb5)" opacity="0.04000000000000001" d="M22.2 1.437v28.798c0 0.795-0.616 1.437-1.378 1.437h-19.443c-0.762-0.005-1.378-0.647-1.378-1.437v-0.5c11.86-5.105 17.383-24.683 18.63-29.735h2.191c0.762 0 1.378 0.642 1.378 1.437z"></path>
</symbol>
<symbol id="icon-Frame-4" viewBox="0 0 38 32">
<path fill="#000" style="fill: var(--color1, #000)" d="M31.655 6.227h-25.341v25.385h25.341v-25.385z"></path>
<path fill="#000" style="fill: var(--color1, #000)" d="M6.209 6.227c0.031 0 0.061 0.012 0.105 0.024 0 8.445 0 16.891 0 25.349-1.962 0.143-3.618-0.318-4.933-1.501-0.931-0.84-1.381-1.827-1.381-2.944 0-3.956 0-7.907 0-11.863 0-1.509-0.004-3.018-0.004-4.527 0-1.823 1.053-3.148 2.989-4.045 0.996-0.457 2.102-0.526 3.225-0.493z"></path>
<path fill="#fff" style="fill: var(--color3, #fff)" d="M27.229 6.223c1.132 0 1.245 0 2.372 0 0 8.474 0 16.919 0 25.381-7.694 0-13.514 0-21.234 0 0-8.458 0-16.903 0-25.373 1.127 0 1.372 0 2.521 0 0-0.106 0-0.188 0-0.265 0-0.909 0.004-1.823-0.004-2.732-0.009-0.636 0.175-1.191 0.708-1.623 0.376-0.302 0.808-0.457 1.298-0.457 1.516-0.004 3.028-0.004 4.544-0.004 2.547 0 5.099 0.004 7.646 0 0.669 0 1.223 0.204 1.66 0.677 0.349 0.379 0.481 0.824 0.481 1.321-0.004 0.958 0 1.917 0 2.875-0.004 0.053 0 0.114 0.009 0.2zM13.623 6.223c0.105 0 0.183 0 0.262 0 1.206 0 2.416 0 3.622 0 2.255 0 4.513 0 6.768 0.004 0.179 0 0.218-0.053 0.218-0.212-0.009-0.714 0-1.427 0-2.141 0-0.057-0.009-0.114-0.017-0.175-3.626 0-7.231 0-10.853 0 0 0.84 0 1.664 0 2.524z"></path>
<path fill="#000" style="fill: var(--color1, #000)" d="M27.665 0h-17.665v6.231h17.665v-6.231z"></path>
<path fill="#000" style="fill: var(--color1, #000)" d="M38.095 10.701c0-1.68-0.983-2.932-2.731-3.841-1.075-0.559-2.294-0.665-3.543-0.64-0.192 0.004-0.166 0.098-0.166 0.196 0 2.936 0 5.868 0 8.804 0 5.159 0 10.313-0.004 15.472 0 0.298 0 0.595 0 0.918 0.787 0.024 1.534 0.029 2.268-0.135 2.482-0.546 4.173-2.271 4.173-4.306 0.009-5.485 0.004-10.978 0.004-16.467z"></path>
<path fill="#000" style="fill: var(--color1, #000)" d="M21.055 20.793c0 0.526 0 1.024 0 1.525 0 0.567 0 1.134 0 1.696 0 0.338-0.183 0.518-0.542 0.518-0.987 0.004-1.975 0.004-2.962 0-0.328 0-0.511-0.192-0.511-0.514 0-1.011 0-2.023 0-3.034 0-0.057 0-0.118 0-0.192-0.083 0-0.144 0-0.21 0-1.066 0-2.137 0-3.203 0-0.424 0-0.599-0.159-0.599-0.555 0-0.877 0-1.753 0-2.63 0-0.4 0.17-0.559 0.594-0.559 1.062 0 2.123 0 3.185 0 0.070 0 0.135 0 0.227 0 0-0.065 0-0.118 0-0.171 0-1.011 0-2.023 0-3.034 0-0.375 0.179-0.538 0.581-0.538 0.939 0 1.879 0 2.818 0 0.441 0 0.612 0.155 0.612 0.575 0.004 1.003 0 2.002 0 3.005 0 0.049 0 0.098 0 0.167 0.070 0 0.131 0 0.188 0 1.084 0 2.167 0 3.251 0.004 0.398 0 0.568 0.163 0.568 0.534 0 0.881 0 1.762 0 2.643 0 0.404-0.166 0.559-0.59 0.559-1.079 0-2.158 0-3.233 0.004-0.044-0.004-0.096-0.004-0.175-0.004z"></path>
</symbol>
<symbol id="icon-Frame-3" viewBox="0 0 22 32">
<path fill="#000" style="fill: var(--color1, #000)" d="M22.088 30.467c0 0.835-0.652 1.514-1.457 1.514l-18.841 0.022c-0.641 0-1.185-0.427-1.382-1.022-0.051-0.154-0.078-0.316-0.078-0.486l-0.030-28.177c0-0.835 0.652-1.514 1.457-1.514l18.841-0.022c0.805 0 1.46 0.676 1.46 1.511l0.030 28.174z"></path>
<path fill="#fff" style="fill: var(--color3, #fff)" d="M20.135 30.305l-17.852 0.020c-0.434 0-0.784-0.363-0.784-0.813l-0.027-26.222c0-0.45 0.35-0.813 0.784-0.813l17.85-0.020c0.434 0 0.784 0.363 0.784 0.813l0.027 26.222c0.003 0.447-0.347 0.813-0.781 0.813z"></path>
<path fill="#000" style="fill: var(--color1, #000)" d="M17.628 4.619l-13.021 0.017c-0.431 0-0.784-0.363-0.784-0.81l-0.003-2.251c0-0.447 0.35-0.813 0.781-0.813l13.024-0.014c0.431 0 0.784 0.363 0.784 0.81l0.003 2.251c-0.003 0.447-0.353 0.81-0.784 0.81zM4.602 1.176c-0.21 0-0.382 0.179-0.382 0.397l0.003 2.251c0 0.218 0.172 0.397 0.382 0.397l13.024-0.014c0.21 0 0.382-0.179 0.382-0.397l-0.003-2.251c0-0.218-0.172-0.397-0.382-0.397l-13.024 0.014z"></path>
<path fill="#000" style="fill: var(--color1, #000)" d="M17.259 1.723l-12.159 0.014c-0.135 0-0.242-0.112-0.242-0.251v-1.22c0-0.14 0.108-0.251 0.242-0.251l12.156-0.014c0.135 0 0.242 0.112 0.242 0.251v1.22c0.003 0.14-0.105 0.251-0.24 0.251z"></path>
<path fill="#58d6f4" style="fill: var(--color4, #58d6f4)" d="M5.111 1.737l12.138-0.014c0.14 0 0.253-0.117 0.253-0.263v-0.598l-12.647 0.014v0.598c0 0.145 0.116 0.263 0.256 0.263z"></path>
<path fill="#58d6f4" style="fill: var(--color4, #58d6f4)" d="M9.376 27.356l-1.050-6.591-0.851 2.868-2.435 0.003c-0.148 0-0.267-0.123-0.267-0.276s0.119-0.276 0.267-0.276l2.044-0.003 1.403-4.723 1.050 6.608 1.363-4.538 0.724 2.15 1.632-4.103 1.586 6.507 0.598-2.069 1.75-0.003c0.148 0 0.267 0.123 0.267 0.276s-0.119 0.276-0.267 0.276l-1.355 0.003-1.037 3.589-1.664-6.826-1.554 3.902-0.654-1.941-1.551 5.167z"></path>
<path fill="#000" style="fill: var(--color1, #000)" d="M7.572 14.648l-3.423 0.003c-0.552 0-1.005-0.466-1.005-1.039l-0.005-4.963c0-0.573 0.45-1.042 1.002-1.042l3.423-0.003c0.552 0 1.005 0.466 1.005 1.039l0.005 4.963c0 0.573-0.45 1.039-1.002 1.042zM4.138 7.909c-0.393 0-0.711 0.332-0.711 0.74l0.005 4.963c0 0.408 0.32 0.737 0.714 0.737l3.423-0.003c0.393 0 0.711-0.332 0.711-0.74l-0.005-4.963c0-0.408-0.32-0.737-0.714-0.737l-3.423 0.003z"></path>
<path fill="#000" style="fill: var(--color1, #000)" d="M5.857 13.696c1.619-0.003 2.122-0.972 2.122-0.972-0.073-0.095-0.164-0.179-0.288-0.263-0.426-0.288-0.768-0.411-0.91-0.533-0.145-0.12-0.226-0.296-0.226-0.296l-0.089 0.056c0 0-0.054-0.193-0.024-0.486 0 0 0.127-0.034 0.221-0.478 0.151 0.031 0.329-0.366 0.245-0.511-0.054-0.095-0.119-0.087-0.164-0.064 0.046-0.198 0.253-1.296-0.889-1.296s-0.934 1.098-0.886 1.296c-0.046-0.022-0.11-0.031-0.164 0.064-0.083 0.145 0.097 0.542 0.248 0.511 0.094 0.444 0.224 0.475 0.224 0.475 0.032 0.29-0.024 0.486-0.024 0.486l-0.089-0.056c0 0-0.081 0.173-0.226 0.296s-0.485 0.249-0.91 0.536c-0.124 0.084-0.218 0.168-0.288 0.263-0.003 0.006 0.504 0.975 2.119 0.972z"></path>
<path fill="#000" style="fill: var(--color1, #000)" d="M16.516 9.188l-6.59 0.008c-0.124 0-0.224-0.103-0.224-0.232v-0.039c0-0.128 0.1-0.232 0.224-0.232l6.59-0.008c0.124 0 0.224 0.103 0.224 0.232v0.039c0 0.128-0.102 0.232-0.224 0.232z"></path>
<path fill="#000" style="fill: var(--color1, #000)" d="M14.092 10.49l-4.166 0.006c-0.124 0-0.224-0.103-0.224-0.232v-0.039c0-0.128 0.1-0.232 0.224-0.232l4.166-0.006c0.124 0 0.224 0.103 0.224 0.232v0.039c0 0.128-0.1 0.232-0.224 0.232z"></path>
<path fill="#000" style="fill: var(--color1, #000)" opacity="0.6" d="M18.789 12.037l-8.86 0.011c-0.124 0-0.224-0.103-0.224-0.232v-0.039c0-0.128 0.1-0.232 0.224-0.232l8.86-0.011c0.124 0 0.224 0.103 0.224 0.232v0.039c-0.003 0.128-0.102 0.232-0.224 0.232z"></path>
<path fill="#000" style="fill: var(--color1, #000)" opacity="0.6" d="M18.597 16.385l-14.78 0.017c-0.127 0-0.232-0.106-0.232-0.24v-0.022c0-0.131 0.102-0.24 0.232-0.24l14.78-0.017c0.127 0 0.232 0.106 0.232 0.24v0.022c0 0.134-0.105 0.24-0.232 0.24z"></path>
<path fill="#000" style="fill: var(--color1, #000)" opacity="0.6" d="M18.789 13.556l-8.86 0.011c-0.124 0-0.224-0.103-0.224-0.232v-0.039c0-0.128 0.1-0.232 0.224-0.232l8.86-0.011c0.124 0 0.224 0.103 0.224 0.232v0.039c0 0.128-0.1 0.232-0.224 0.232z"></path>
</symbol>
<symbol id="icon-Frame-2" viewBox="0 0 22 32">
<path fill="#000" style="fill: var(--color1, #000)" d="M21.416 0h-20.346c-0.418 0-0.757 0.346-0.757 0.775v30.453c0 0.428 0.338 0.775 0.757 0.775h20.346c0.418 0 0.757-0.346 0.757-0.775v-30.453c-0.003-0.428-0.341-0.775-0.757-0.775z"></path>
<path fill="#fff" style="fill: var(--color3, #fff)" d="M20.080 1.38h-17.678c-0.406 0-0.737 0.339-0.737 0.757v25.178c0 0.418 0.331 0.754 0.737 0.754h17.678c0.408 0 0.737-0.339 0.737-0.754v-25.178c0-0.418-0.328-0.757-0.737-0.757z"></path>
<path fill="#000" style="fill: var(--color1, #000)" d="M14.856 13.351h-7.226c-0.331 0-0.599-0.274-0.599-0.613v-7.402c0-0.339 0.268-0.613 0.599-0.613h7.226c0.331 0 0.599 0.275 0.599 0.613v7.399c0 0.339-0.268 0.616-0.599 0.616z"></path>
<path fill="#fff" style="fill: var(--color3, #fff)" d="M11.243 31.174c0.614 0 1.113-0.51 1.113-1.139s-0.498-1.139-1.113-1.139c-0.614 0-1.113 0.51-1.113 1.139s0.498 1.139 1.113 1.139z"></path>
<path fill="#000" style="fill: var(--color1, #000)" d="M17.539 17.184h-12.596c-0.318 0-0.579-0.267-0.579-0.593s0.261-0.593 0.579-0.593h12.594c0.318 0 0.579 0.267 0.579 0.593s-0.258 0.593-0.576 0.593z"></path>
<path fill="#000" style="fill: var(--color1, #000)" opacity="0.6" d="M15.407 20.468h-10.674c-0.203 0-0.366-0.169-0.366-0.375v-0.041c0-0.208 0.165-0.375 0.366-0.375h10.674c0.203 0 0.366 0.169 0.366 0.375v0.041c0.002 0.205-0.163 0.375-0.366 0.375z"></path>
<path fill="#000" style="fill: var(--color1, #000)" opacity="0.3" d="M13.375 22.554h-8.677c-0.183 0-0.333-0.154-0.333-0.341v-0.113c0-0.187 0.15-0.341 0.333-0.341h8.675c0.183 0 0.333 0.154 0.333 0.341v0.113c0 0.187-0.15 0.341-0.331 0.341z"></path>
<path fill="#000" style="fill: var(--color1, #000)" opacity="0.6" d="M14.467 24.486h-9.75c-0.193 0-0.351-0.162-0.351-0.359v-0.072c0-0.198 0.158-0.359 0.351-0.359h9.75c0.193 0 0.351 0.162 0.351 0.359v0.072c0 0.195-0.158 0.359-0.351 0.359z"></path>
<path fill="#fff" style="fill: var(--color3, #fff)" d="M11.264 8.799c0.724 0 1.31-0.609 1.31-1.359s-0.586-1.359-1.31-1.359c-0.724 0-1.31 0.609-1.31 1.359s0.584 1.359 1.31 1.359zM11.264 9.478c-0.874 0-2.62 0.455-2.62 1.359v0.341c0 0.188 0.148 0.341 0.329 0.341h4.588c0.181 0 0.329-0.154 0.329-0.341v-0.341c-0.005-0.901-1.751-1.359-2.626-1.359z"></path>
</symbol>
<symbol id="icon-Frame-1" viewBox="0 0 25 32">
<path fill="#000" style="fill: var(--color1, #000)" d="M24.951 9.969l-0.077 14.984-0.013 2.898c-0.013 2.303-2.358 4.161-5.244 4.149l-14.418-0.060c-2.88-0.018-5.212-1.894-5.199-4.203l0.090-17.882c0.006-1.864 1.553-3.439 3.666-3.962l0.006-0.962v-0.493l17.568 0.078-0.006 1.455c2.107 0.547 3.633 2.129 3.627 3.998z"></path>
<path fill="#000" style="fill: var(--color1, #000)" d="M22.638 0.667v0.132l-0.013 1.563-0.013 1.533v0.186c0 0.289-0.258 0.523-0.567 0.523h-0.135l-3.569-0.024-0.863-0.012-4.516-0.030-0.85-0.012-9.077-0.060c-0.309 0-0.56-0.241-0.56-0.529v-0.138l0.026-3.091v-0.186c0-0.289 0.258-0.523 0.573-0.523h0.135l18.869 0.138c0.316 0.006 0.561 0.24 0.561 0.529z"></path>
<path fill="#000" style="fill: var(--color1, #000)" d="M22.638 0.806l-0.013 1.557-0.013 1.533-0.767-0.006-1.952-0.012h-1.024l-2.886-0.018h-1.024l-2.886-0.018h-1.024l-2.893-0.018h-1.018l-2.893-0.018h-1.018l-0.754-0.006 0.026-3.091 1.791 0.006 3.91 0.024h0.934l2.976 0.018h0.934l2.976 0.018h0.934l2.976 0.018h0.934l1.772 0.012z"></path>
<path fill="#f7f9fc" style="fill: var(--color5, #f7f9fc)" d="M24.932 13.133l-24.861-0.11-0.052 10.288 24.861 0.11 0.052-10.288z"></path>
<path fill="#fbfcf7" style="fill: var(--color6, #fbfcf7)" d="M24.936 13.133l-24.861-0.11-0.009 1.852 24.861 0.11 0.009-1.852z"></path>
<path fill="#000" style="fill: var(--color1, #000)" d="M9.766 17.16l-1.604-0.006 0.006-1.503-2.21-0.006-0.006 1.497-1.604-0.006-0.013 2.056 1.604 0.006-0.006 1.503 2.21 0.006 0.006-1.497 1.604 0.006 0.013-2.056z"></path>
<path fill="#000" style="fill: var(--color1, #000)" d="M20.667 17.659l-7.95-0.036c-0.213 0-0.387-0.162-0.387-0.361v-0.168c0-0.198 0.174-0.361 0.387-0.361l7.95 0.036c0.213 0 0.387 0.162 0.387 0.361v0.168c0 0.198-0.174 0.361-0.387 0.361z"></path>
<path fill="#000" style="fill: var(--color1, #000)" opacity="0.5" d="M20.66 19.865l-7.95-0.036c-0.213 0-0.387-0.162-0.387-0.361v-0.168c0-0.198 0.174-0.361 0.387-0.361l7.95 0.036c0.213 0 0.387 0.162 0.387 0.361v0.168c0 0.198-0.174 0.361-0.387 0.361z"></path>
<path fill="#1a6fb5" style="fill: var(--color2, #1a6fb5)" opacity="0.08" d="M2.474 0.667v0.132l0.013 1.563 0.013 1.527v0.186c0 0.289 0.258 0.523 0.567 0.523h0.135l18.857-0.126c0.309 0 0.56-0.241 0.56-0.529v-0.138c-9.966 0.403-19.584-3.668-19.584-3.668-0.309 0.006-0.56 0.24-0.56 0.529z"></path>
</symbol>
<symbol id="icon-Frame" viewBox="0 0 35 32">
<path fill="#000" style="fill: var(--color1, #000)" d="M21.415 15.401l-18.062 16.089c-0.383 0.342-0.875 0.514-1.367 0.514-0.538 0-1.077-0.204-1.468-0.608-0.771-0.794-0.67-2.036 0.217-2.713l19.119-14.541 1.561 1.26z"></path>
<path fill="#3a81d6" style="fill: var(--color7, #3a81d6)" opacity="0.8" d="M17.806 18.638l-3.404 3.030-0.314-3.114 1.863-1.417 1.855 1.5z"></path>
<path fill="#000" style="fill: var(--color1, #000)" d="M35.039 10.634c0 5.874-5.065 10.638-11.308 10.638-3.935 0-7.401-1.89-9.426-4.76-1.189-1.683-1.882-3.704-1.882-5.878 0-5.874 5.065-10.634 11.308-10.634 2.819 0 5.395 0.969 7.373 2.571 2.409 1.952 3.935 4.84 3.935 8.063z"></path>
<path fill="#fff" style="fill: var(--color3, #fff)" d="M23.731 18.919c4.866 0 8.81-3.709 8.81-8.285s-3.944-8.285-8.81-8.285-8.81 3.709-8.81 8.285c0 4.576 3.944 8.285 8.81 8.285z"></path>
<path fill="#1a6fb5" style="fill: var(--color2, #1a6fb5)" opacity="0.03" d="M35.039 10.634c0 5.874-5.065 10.638-11.308 10.638-3.935 0-7.401-1.89-9.426-4.76 12.752-0.976 16.114-11.136 16.803-13.941 2.405 1.952 3.931 4.84 3.931 8.063z"></path>
<path fill="#000" style="fill: var(--color1, #000)" d="M23.731 10.652c1.022 0 1.851-0.779 1.851-1.741s-0.829-1.741-1.851-1.741c-1.022 0-1.851 0.779-1.851 1.741s0.825 1.741 1.851 1.741zM23.731 11.523c-1.235 0-3.702 0.583-3.702 1.741v0.437c0 0.24 0.209 0.437 0.465 0.437h6.483c0.256 0 0.465-0.197 0.465-0.437v-0.437c-0.008-1.154-2.475-1.741-3.71-1.741z"></path>
</symbol>
</defs>
</svg>
